<?xml version="1.0" standalone="no"?>
<!DOCTYPE svg PUBLIC "-//W3C//DTD SVG 20010904//EN"
 "http://www.w3.org/TR/2001/REC-SVG-20010904/DTD/svg10.dtd">
<svg version="1.0" xmlns="http://www.w3.org/2000/svg"
 width="640.000000pt" height="640.000000pt" viewBox="0 0 640.000000 640.000000"
 preserveAspectRatio="xMidYMid meet">
<metadata>
Created by potrace 1.14, written by Peter Selinger 2001-2017
</metadata>
<g transform="translate(0.000000,640.000000) scale(0.100000,-0.100000)"
fill="#000000" stroke="none">
<path d="M3065 5949 c-186 -28 -365 -137 -464 -282 -18 -26 -106 -175 -195
-330 -90 -155 -270 -466 -401 -692 -212 -366 -312 -539 -510 -880 -59 -103
-279 -481 -345 -595 -84 -143 -509 -875 -595 -1025 -51 -88 -141 -243 -200
-345 -182 -313 -194 -344 -202 -507 -7 -137 10 -220 68 -338 65 -133 194 -258
326 -317 27 -11 80 -29 118 -39 67 -18 162 -19 2491 -19 2392 0 2422 0 2499
20 366 94 587 461 494 822 -28 110 2 56 -439 813 -217 372 -389 670 -432 745
-11 19 -53 91 -93 160 -80 137 -497 856 -777 1340 -52 91 -202 350 -333 575
-131 226 -243 419 -249 430 -150 270 -277 387 -482 443 -89 25 -201 33 -279
21z m202 -355 c26 -9 65 -28 85 -43 l38 -26 0 -177 0 -178 -220 0 -220 0 0
183 c0 210 -2 206 92 238 66 23 163 24 225 3z m-317 -664 l0 -220 230 0 230 0
0 220 0 220 108 0 107 0 113 -196 c61 -108 112 -207 112 -220 0 -13 6 -24 13
-24 16 0 33 -27 172 -270 65 -113 198 -342 295 -510 453 -780 661 -1140 718
-1240 37 -66 269 -467 389 -672 57 -97 103 -182 103 -188 0 -6 -58 -10 -167
-10 l-168 0 -2 -218 -3 -217 -220 -3 -220 -2 0 220 0 220 -230 0 -230 0 0 -76
c0 -61 4 -79 17 -89 17 -12 17 -15 0 -49 -12 -27 -17 -62 -17 -131 0 -78 -3
-95 -15 -95 -19 0 -19 -11 2 -54 19 -41 32 -39 27 4 l-4 30 225 0 225 0 0
-220 0 -220 -220 0 -219 0 -3 93 -3 92 -49 -3 c-80 -5 -225 -47 -323 -93 -78
-36 -93 -47 -93 -66 l0 -23 -220 0 -220 0 0 141 c0 130 -1 141 -17 134 -10 -4
-114 -9 -230 -12 l-213 -6 0 -129 0 -128 -222 2 -223 3 -3 160 -2 160 -58 17
c-31 9 -58 15 -60 13 -2 -2 -17 -57 -34 -122 -16 -65 -34 -122 -39 -128 -5 -5
-9 -19 -9 -32 0 -30 -20 -29 -68 0 -34 22 -167 77 -185 77 -4 0 -7 -34 -7 -75
l0 -75 -220 0 -220 0 0 220 0 220 144 0 144 0 6 30 c8 44 -11 127 -46 188 -22
41 -26 57 -18 67 16 19 105 28 163 17 l47 -9 0 83 0 84 -230 0 -230 0 0 -220
0 -220 -220 0 -220 0 -1 203 c-1 111 -2 210 -3 220 -1 17 -13 19 -178 17 -122
0 -178 3 -178 10 0 11 61 120 195 350 37 63 103 178 147 255 93 161 265 459
518 895 98 168 211 364 252 435 41 72 160 276 263 455 104 179 209 362 234
407 43 77 48 82 79 83 l32 0 0 53 c0 48 8 66 97 220 l98 167 127 0 128 0 0
-220z m-2280 -3420 l0 -130 -75 0 c-41 0 -75 3 -75 7 0 3 12 27 26 52 73 127
117 201 120 201 2 0 4 -58 4 -130z m5130 -122 c0 -5 -29 -8 -65 -8 l-65 0 0
118 0 117 65 -110 c35 -60 65 -113 65 -117z m-4670 -249 l0 -221 -187 4 c-118
3 -200 9 -220 17 l-33 13 0 204 0 204 220 0 220 0 0 -221z m4538 29 l-3 -193
-50 -25 c-46 -23 -62 -25 -222 -28 l-173 -4 0 221 0 221 226 0 225 0 -3 -192z
m-3633 -318 c-17 -19 -17 -20 8 -31 49 -22 64 -114 26 -163 -16 -20 -29 -26
-59 -26 -52 0 -80 35 -80 99 0 45 25 91 49 91 5 0 12 11 15 25 5 19 13 25 33
25 25 0 26 -1 8 -20z m-495 -94 c0 -81 16 -110 48 -89 13 8 18 28 20 87 3 69
5 76 23 76 20 0 21 -5 18 -86 -4 -96 -16 -114 -76 -114 -57 0 -73 27 -73 120
0 73 2 80 20 80 18 0 20 -7 20 -74z m214 12 l35 -63 1 63 c0 55 2 62 20 62 19
0 20 -7 20 -100 0 -93 -1 -100 -20 -100 -14 0 -30 18 -52 58 l-33 57 -3 -57
c-3 -50 -6 -58 -22 -58 -19 0 -20 8 -20 100 0 92 2 100 19 100 13 0 31 -20 55
-62z m146 -38 c0 -93 -1 -100 -20 -100 -19 0 -20 7 -20 100 0 93 1 100 20 100
19 0 20 -7 20 -100z m291 39 l34 -62 3 62 c3 53 6 61 22 61 19 0 20 -7 20
-101 0 -98 0 -100 -22 -97 -16 2 -32 20 -53 58 l-30 55 -3 -57 c-3 -50 -6 -58
-22 -58 -19 0 -20 8 -20 100 0 90 2 100 18 100 12 0 30 -21 53 -61z m399 41
c0 -17 -7 -20 -40 -20 -33 0 -40 -3 -40 -20 0 -16 7 -20 30 -20 23 0 30 -4 30
-20 0 -16 -7 -20 -30 -20 -28 0 -30 -2 -30 -40 0 -33 -3 -40 -20 -40 -19 0
-20 7 -20 100 l0 100 60 0 c53 0 60 -2 60 -20z m60 -48 c0 -79 15 -108 48 -98
20 7 22 14 22 87 0 72 2 79 20 79 18 0 20 -7 20 -84 0 -76 -2 -86 -22 -100
-31 -22 -84 -20 -108 4 -16 16 -20 33 -20 93 0 76 4 87 27 87 9 0 13 -18 13
-68z m270 48 c0 -17 -7 -20 -45 -20 -38 0 -45 -3 -45 -20 0 -16 7 -20 35 -20
28 0 35 -4 35 -20 0 -16 -7 -20 -35 -20 -31 0 -35 -3 -35 -25 0 -23 3 -25 50
-25 38 0 50 -4 50 -15 0 -12 -14 -15 -70 -15 l-70 0 0 100 0 100 65 0 c58 0
65 -2 65 -20z m154 1 c20 -17 21 -65 1 -85 -14 -14 -14 -19 5 -56 l20 -40 -23
0 c-18 0 -28 10 -42 40 -10 22 -24 40 -32 40 -9 0 -13 -13 -13 -40 0 -33 -3
-40 -20 -40 -19 0 -20 7 -20 101 l0 101 54 -4 c30 -3 62 -10 70 -17z m176 1
c0 -10 -20 -47 -45 -83 l-45 -64 43 -3 c23 -2 44 -8 48 -13 3 -6 14 18 23 53
34 123 36 128 60 128 21 0 26 -10 50 -95 31 -113 30 -105 7 -105 -10 0 -21 9
-24 20 -4 15 -14 20 -36 20 -24 0 -31 -4 -31 -20 0 -19 -7 -20 -95 -20 -113 0
-115 3 -54 94 l41 61 -36 3 c-28 3 -36 8 -36 23 0 17 7 19 65 19 56 0 65 -2
65 -18z m298 -17 l18 -36 17 36 c11 23 24 35 37 35 17 0 18 -4 10 -25 -5 -14
-16 -38 -25 -55 -8 -16 -15 -50 -15 -75 0 -42 -2 -46 -22 -43 -18 2 -22 9 -20
29 2 14 -7 47 -18 75 -42 94 -41 94 -20 94 12 0 26 -13 38 -35z m302 9 c23
-22 -3 -41 -34 -25 -25 14 -51 7 -40 -10 3 -5 21 -16 40 -24 75 -31 64 -115
-15 -115 -25 0 -44 7 -56 20 -26 29 -6 48 28 26 25 -17 60 -12 54 8 -2 6 -18
19 -37 28 -50 25 -63 43 -57 71 11 43 79 56 117 21z m180 6 c0 -17 -7 -20 -45
-20 -38 0 -45 -3 -45 -20 0 -16 7 -20 30 -20 23 0 30 -4 30 -20 0 -16 -7 -20
-30 -20 -25 0 -30 -4 -30 -25 0 -23 4 -25 45 -25 33 0 45 -4 45 -15 0 -12 -14
-15 -65 -15 l-65 0 0 100 0 100 65 0 c58 0 65 -2 65 -20z m120 14 c45 -10 60
-45 36 -88 -16 -31 -17 -36 -2 -64 20 -39 20 -42 -4 -42 -13 0 -27 14 -40 40
-11 22 -25 40 -30 40 -6 0 -10 -18 -10 -40 0 -33 -3 -40 -20 -40 -19 0 -20 7
-20 100 l0 100 29 0 c16 0 43 -3 61 -6z m120 -64 c15 -60 17 -63 24 -35 24 98
27 105 46 105 24 0 24 -2 6 -66 -8 -27 -20 -68 -26 -91 -9 -35 -15 -43 -34
-43 -20 0 -25 9 -44 83 -11 45 -24 90 -28 100 -6 15 -3 18 17 15 19 -2 26 -13
39 -68z m150 -30 c0 -93 -1 -100 -20 -100 -19 0 -20 7 -20 100 0 93 1 100 20
100 19 0 20 -7 20 -100z m163 67 c18 -21 18 -21 0 -28 -10 -4 -25 -1 -34 7
-22 19 -36 17 -49 -5 -15 -30 -12 -66 9 -92 18 -23 20 -23 38 -6 22 19 39 22
48 6 12 -18 -26 -49 -60 -49 -48 0 -76 28 -81 80 -10 97 73 153 129 87z m87
-67 c0 -93 -1 -100 -20 -100 -19 0 -20 7 -20 100 0 93 1 100 20 100 19 0 20
-7 20 -100z m140 90 c5 0 18 -10 30 -22 29 -31 28 -113 -2 -145 -31 -33 -90
-32 -117 3 -23 30 -28 88 -10 128 12 26 54 48 77 40 8 -2 18 -4 22 -4z m-2460
-171 c0 -23 -17 -59 -28 -59 -4 0 -8 18 -9 40 -2 34 1 40 18 40 13 0 19 -7 19
-21z"/>
<path d="M2502 4633 c-21 -8 -42 -60 -42 -103 0 -59 24 -100 58 -100 32 0 52
16 52 41 0 23 -20 35 -30 18 -14 -22 -40 9 -40 47 0 37 14 51 35 34 33 -27 49
24 17 53 -19 17 -28 19 -50 10z"/>
<path d="M2627 4632 c-61 -13 -62 -183 0 -198 33 -9 53 2 66 36 13 34 27 40
27 12 0 -24 31 -52 57 -52 51 0 80 96 48 163 -9 19 -24 38 -33 42 -21 8 -66
-26 -70 -54 -5 -31 -16 -26 -30 13 -13 34 -32 45 -65 38z m33 -71 c14 -27 13
-44 -5 -67 -13 -16 -16 -17 -25 -4 -11 17 -13 73 -3 83 11 12 22 8 33 -12z
m134 3 c9 -23 7 -57 -3 -73 -14 -22 -41 4 -41 38 0 42 32 67 44 35z"/>
<path d="M3210 4614 c-6 -15 -20 -57 -32 -92 -16 -52 -23 -61 -30 -48 -5 10
-7 39 -3 66 9 67 -5 90 -55 90 l-40 0 0 -100 c0 -93 1 -100 20 -100 15 0 20 7
21 28 l1 27 11 -27 c9 -22 15 -26 38 -21 14 3 30 0 33 -6 5 -7 13 -7 26 2 16
9 24 9 39 0 15 -9 23 -9 37 1 17 13 16 18 -16 107 -18 52 -34 96 -36 98 -2 2
-8 -9 -14 -25z m-100 -59 c0 -8 -4 -15 -10 -15 -5 0 -10 7 -10 15 0 8 5 15 10
15 6 0 10 -7 10 -15z m116 -72 c-10 -10 -19 5 -10 18 6 11 8 11 12 0 2 -7 1
-15 -2 -18z"/>
<path d="M3463 4633 c-7 -2 -13 -12 -13 -21 0 -20 50 -174 60 -185 4 -4 22 35
39 88 27 77 31 98 21 110 -20 24 -28 18 -42 -32 l-14 -48 -13 48 c-14 47 -16
50 -38 40z"/>
<path d="M3625 4628 c-3 -7 -18 -52 -34 -99 l-29 -86 21 -13 c15 -9 22 -10 25
-1 5 14 49 15 54 1 2 -7 10 -6 22 3 18 13 18 17 -13 110 -18 54 -35 97 -37 97
-3 0 -7 -6 -9 -12z m15 -133 c0 -8 -4 -15 -10 -15 -5 0 -7 7 -4 15 4 8 8 15
10 15 2 0 4 -7 4 -15z"/>
<path d="M2850 4530 c0 -93 1 -100 20 -100 15 0 20 7 20 28 0 21 7 32 25 40
14 7 27 23 31 39 10 48 13 50 12 8 0 -22 0 -57 1 -77 1 -37 2 -38 41 -38 38 0
40 2 40 30 0 23 -4 30 -20 30 -11 0 -20 5 -20 10 0 6 7 10 15 10 8 0 15 9 15
20 0 11 -7 20 -15 20 -22 0 -18 17 5 23 14 3 20 14 20 31 0 24 -4 26 -40 26
-35 0 -40 -3 -40 -22 l-1 -23 -18 23 c-14 15 -30 22 -55 22 l-36 0 0 -100z
m60 31 c0 -6 -4 -13 -10 -16 -5 -3 -10 1 -10 9 0 9 5 16 10 16 6 0 10 -4 10
-9z"/>
<path d="M3280 4605 c0 -14 7 -28 15 -31 11 -5 15 -23 15 -75 0 -62 2 -69 20
-69 18 0 20 7 20 66 0 57 3 67 19 71 12 3 22 16 24 32 2 14 5 -18 6 -71 1 -91
2 -98 21 -98 19 0 20 7 20 100 l0 100 -80 0 c-79 0 -80 0 -80 -25z"/>
<path d="M3081 4164 c-32 -91 -33 -96 -16 -112 13 -13 19 -14 22 -4 6 15 50
16 55 1 5 -16 38 1 38 20 0 19 -43 150 -57 175 -6 11 -18 -11 -42 -80z m36
-56 c-3 -7 -5 -2 -5 12 0 14 2 19 5 13 2 -7 2 -19 0 -25z"/>
<path d="M2690 4150 l0 -100 34 0 c54 0 79 39 74 114 -5 67 -22 86 -75 86
l-33 0 0 -100z m65 0 c0 -18 -6 -35 -12 -37 -9 -3 -13 8 -13 37 0 29 4 40 13
38 6 -3 12 -20 12 -38z"/>
<path d="M2810 4150 l0 -100 40 0 c36 0 40 2 40 25 0 17 -7 29 -22 35 -18 7
-19 9 -5 9 11 1 17 9 17 26 0 14 -4 25 -10 25 -5 0 -10 5 -10 10 0 6 7 10 15
10 10 0 15 10 15 30 0 28 -2 30 -40 30 l-40 0 0 -100z"/>
<path d="M2950 4220 c0 -20 5 -30 15 -30 12 0 15 -14 15 -70 0 -63 2 -70 20
-70 18 0 20 7 20 70 0 54 3 70 14 70 17 0 25 18 18 43 -3 13 -15 17 -53 17
-48 0 -49 -1 -49 -30z"/>
<path d="M3207 4238 c-18 -13 -18 -17 -3 -52 14 -34 14 -41 -1 -77 -15 -38
-15 -41 3 -54 17 -13 20 -12 28 10 13 32 22 32 31 -2 6 -26 6 -26 26 -7 18 19
19 23 4 56 -13 33 -13 40 1 73 14 34 14 38 -3 51 -16 12 -19 10 -27 -11 -12
-32 -20 -31 -32 1 -8 22 -11 24 -27 12z"/>
<path d="M3320 4150 c0 -93 1 -100 20 -100 19 0 20 7 20 100 0 93 -1 100 -20
100 -19 0 -20 -7 -20 -100z"/>
<path d="M3392 4238 c-6 -6 -12 -29 -12 -50 0 -32 5 -41 31 -57 19 -12 26 -21
19 -26 -6 -4 -17 -2 -24 4 -10 8 -16 7 -26 -3 -9 -12 -7 -20 14 -41 22 -21 29
-24 46 -15 49 26 46 99 -5 122 -14 6 -25 15 -25 20 0 12 24 10 38 -4 16 -16
29 19 15 41 -13 20 -54 26 -71 9z"/>
<path d="M2976 3865 c-5 -11 -21 -56 -36 -101 -25 -73 -26 -82 -11 -91 11 -7
22 -7 34 1 12 8 22 8 35 -1 12 -7 24 -8 35 -2 11 6 24 6 36 -1 28 -14 31 -13
31 13 0 12 4 28 9 36 7 11 10 8 16 -9 l7 -23 13 22 c10 20 13 21 18 6 4 -9 7
-26 7 -37 0 -15 4 -18 18 -13 9 4 32 7 50 6 l33 -2 -3 98 c-3 93 -4 98 -25
101 -22 3 -23 1 -24 -85 l-1 -88 -22 87 c-11 49 -23 88 -26 88 -4 0 -12 -17
-20 -37 l-13 -38 -17 39 c-10 21 -20 34 -23 30 -2 -5 -13 -44 -23 -86 -10 -43
-20 -78 -24 -78 -3 0 -19 42 -36 92 -24 72 -32 88 -38 73z m10 -142 c-10 -10
-19 5 -10 18 6 11 8 11 12 0 2 -7 1 -15 -2 -18z"/>
<path d="M2312 3778 c-20 -85 -20 -94 -5 -105 21 -16 29 -10 37 29 l8 33 9
-25 10 -25 14 25 13 25 7 -38 c8 -41 8 -41 34 -27 18 9 18 12 0 92 -27 118
-28 119 -49 74 l-18 -39 -13 37 c-7 20 -16 36 -19 36 -4 0 -16 -42 -28 -92z"/>
<path d="M2462 3786 c4 -93 16 -116 58 -116 37 0 50 33 50 125 0 68 -2 75 -20
75 -18 0 -20 -7 -20 -69 0 -39 -4 -73 -10 -76 -5 -3 -11 -1 -11 4 -1 6 -3 16
-4 21 -1 6 -3 35 -4 65 -1 49 -3 55 -22 55 -20 0 -21 -4 -17 -84z"/>
<path d="M2580 3770 l0 -100 40 0 c38 0 40 2 40 30 0 23 -4 30 -20 30 -18 0
-20 7 -20 70 0 63 -2 70 -20 70 -19 0 -20 -7 -20 -100z"/>
<path d="M2660 3840 c0 -23 4 -30 20 -30 18 0 20 -7 20 -70 0 -63 2 -70 20
-70 18 0 20 7 20 70 0 56 3 70 15 70 10 0 15 10 15 30 0 30 -1 30 -55 30 -54
0 -55 0 -55 -30z"/>
<path d="M2780 3770 c0 -93 1 -100 20 -100 19 0 20 7 20 100 0 93 -1 100 -20
100 -19 0 -20 -7 -20 -100z"/>
<path d="M2830 3770 c0 -93 1 -100 20 -100 16 0 20 7 20 30 0 18 6 33 15 36 8
4 15 15 15 25 0 10 -7 19 -15 19 -8 0 -15 7 -15 15 0 8 9 15 20 15 16 0 20 7
20 30 0 28 -2 30 -40 30 l-40 0 0 -100z"/>
<path d="M3280 3770 l0 -100 40 0 c38 0 40 2 40 30 0 23 -4 30 -20 30 -18 0
-20 7 -20 70 0 63 -2 70 -20 70 -19 0 -20 -7 -20 -100z"/>
<path d="M3370 3770 c0 -93 1 -100 20 -100 19 0 20 7 20 100 0 93 -1 100 -20
100 -19 0 -20 -7 -20 -100z"/>
<path d="M3451 3779 c-30 -86 -31 -93 -15 -108 12 -12 18 -13 21 -3 6 15 50
16 55 1 3 -9 10 -9 27 0 15 9 20 18 16 29 -4 9 -18 52 -33 94 -15 43 -30 78
-33 78 -4 0 -21 -41 -38 -91z m42 -39 c3 -11 1 -20 -4 -20 -5 0 -9 9 -9 20 0
11 2 20 4 20 2 0 6 -9 9 -20z"/>
<path d="M3570 3771 c0 -94 1 -101 20 -101 15 0 20 7 21 28 l1 27 10 -27 c11
-31 20 -35 37 -14 9 11 9 20 2 34 -7 13 -7 31 0 56 15 55 -5 90 -54 94 l-37 3
0 -100z m55 30 c3 -5 1 -12 -5 -16 -5 -3 -10 1 -10 9 0 18 6 21 15 7z"/>
<path d="M3680 3770 l0 -100 34 0 c24 0 35 5 38 18 7 24 -1 42 -18 42 -8 0
-14 5 -14 10 0 6 7 10 15 10 8 0 15 9 15 20 0 11 -7 20 -15 20 -8 0 -15 5 -15
10 0 6 6 10 14 10 8 0 16 13 18 30 4 29 3 30 -34 30 l-38 0 0 -100z"/>
<path d="M3782 3858 c-7 -7 -12 -29 -12 -50 0 -32 5 -40 30 -53 17 -9 30 -20
30 -25 0 -13 -17 -13 -25 0 -10 16 -23 12 -30 -10 -9 -28 11 -50 46 -50 58 0
64 87 9 118 -17 9 -30 20 -30 25 0 11 24 9 36 -3 8 -8 14 -7 22 3 28 33 -45
76 -76 45z"/>
<path d="M3107 3486 c-3 -8 -9 -42 -13 -75 -3 -34 -10 -61 -13 -61 -4 0 -5
-16 -3 -35 3 -26 9 -35 23 -35 14 0 19 7 19 30 0 23 4 30 20 30 16 0 20 -7 20
-30 0 -23 4 -30 20 -30 13 0 20 7 20 19 0 11 7 27 16 35 9 9 11 16 4 16 -11 0
-8 43 6 123 5 22 2 27 -15 27 -22 0 -27 -12 -37 -92 -5 -49 -9 -58 -26 -58
-19 0 -20 4 -14 58 4 31 9 65 12 75 7 21 -31 24 -39 3z m7 -83 c-8 -49 -14
-94 -14 -102 0 -8 -3 -12 -6 -9 -5 6 12 160 21 186 11 32 11 4 -1 -75z m79
-16 c-19 -115 -30 -123 -13 -10 12 84 20 117 26 111 2 -2 -4 -48 -13 -101z"/>
<path d="M2694 3465 c-4 -18 -1 -136 6 -172 0 -2 7 -3 15 -3 9 0 15 10 15 26
0 14 9 33 21 43 20 16 20 18 5 33 -19 20 -21 49 -3 46 7 -2 13 9 15 25 3 25 1
27 -32 27 -30 0 -37 -4 -42 -25z"/>
<path d="M2832 3470 c-57 -157 -58 -158 -38 -177 13 -13 20 -15 23 -5 3 6 15
12 28 12 13 0 25 -6 28 -12 3 -10 9 -9 22 3 16 16 15 21 -9 93 -14 43 -30 85
-35 94 -8 15 -11 14 -19 -8z m14 -127 c-10 -10 -19 5 -10 18 6 11 8 11 12 0 2
-7 1 -15 -2 -18z"/>
<path d="M2920 3390 l0 -100 40 0 c36 0 40 2 40 25 0 17 -7 28 -22 34 -20 8
-21 10 -5 16 21 9 23 45 2 45 -22 0 -18 21 5 27 13 3 20 14 20 29 0 21 -5 24
-40 24 l-40 0 0 -100z"/>
<path d="M3265 3470 c-15 -16 -16 -22 -5 -35 9 -11 16 -13 24 -5 37 37 34 -19
-5 -86 l-30 -54 50 0 c50 0 51 1 51 29 0 16 -5 31 -11 33 -9 3 -9 9 0 25 38
73 -22 150 -74 93z"/>
<path d="M3386 3475 c-22 -23 -29 -93 -14 -140 10 -31 19 -41 39 -43 31 -4 48
15 56 60 6 40 -18 73 -48 65 -12 -3 -16 0 -12 10 3 8 11 12 19 9 17 -6 38 20
30 39 -7 19 -50 19 -70 0z m44 -120 c0 -8 -4 -15 -9 -15 -13 0 -22 16 -14 24
11 11 23 6 23 -9z"/>
<path d="M2837 3100 c-51 -9 -82 -30 -92 -61 -4 -11 -16 -19 -28 -19 -11 0
-77 -10 -146 -22 l-126 -22 -56 -53 c-49 -47 -90 -100 -141 -183 -13 -21 -30
-29 -82 -39 -37 -7 -81 -23 -99 -35 -28 -19 -33 -29 -40 -81 -5 -33 -13 -77
-19 -97 -6 -20 -8 -62 -5 -91 10 -95 49 -144 125 -156 35 -6 37 -8 44 -54 13
-93 54 -126 140 -111 52 9 53 9 66 57 10 34 18 47 32 47 10 0 91 -11 180 -25
89 -14 166 -25 170 -25 4 0 12 -19 18 -43 26 -101 92 -151 202 -151 84 0 126
23 157 84 l23 44 142 3 c79 2 230 8 337 13 l193 10 39 -39 c68 -67 175 -77
266 -25 28 16 46 35 54 58 8 21 25 40 48 52 20 10 57 39 84 63 l47 44 0 83 c0
77 -2 86 -29 116 -16 18 -38 56 -51 85 -30 70 -61 84 -393 179 -9 3 -15 10
-11 15 23 37 -39 86 -92 73 -19 -5 -38 8 -106 71 -46 42 -101 87 -123 100 -42
25 -174 51 -304 61 -69 6 -78 9 -102 37 -21 24 -38 32 -80 38 -69 10 -180 9
-242 -1z m85 -47 c-5 -25 -6 -25 -13 -8 -11 29 -10 35 5 35 9 0 12 -8 8 -27z
m48 17 c0 -5 -2 -10 -4 -10 -3 0 -8 5 -11 10 -3 6 -1 10 4 10 6 0 11 -4 11
-10z m65 -15 c0 -12 -6 -21 -16 -21 -10 0 -16 9 -16 21 0 12 6 21 16 21 10 0
16 -9 16 -21z m32 -12 c-3 -10 -5 -4 -5 12 0 17 2 24 5 18 2 -7 2 -21 0 -30z
m-261 -8 c-6 -19 -17 -35 -23 -35 -18 0 -16 21 3 48 23 33 32 27 20 -13z m141
3 c-3 -8 -6 -5 -6 6 -1 11 2 17 5 13 3 -3 4 -12 1 -19z m357 -56 c22 -4 -46
-7 -160 -8 -173 -1 -313 -12 -392 -31 -24 -6 -25 -19 -1 -168 20 -127 9 -115
103 -115 46 0 105 4 132 9 112 21 487 35 599 23 52 -6 111 -22 170 -45 108
-43 126 -42 23 2 l-73 30 45 1 c50 0 180 -33 342 -86 157 -53 161 -59 42 -68
-54 -4 -102 -10 -106 -14 -5 -5 -9 -26 -11 -48 l-2 -39 130 3 c116 3 171 -5
154 -22 -13 -13 -350 -39 -434 -34 -51 4 -46 5 27 6 85 2 88 3 94 28 8 32 -2
113 -17 130 -9 11 -52 14 -189 14 -219 0 -240 -3 -239 -39 0 -14 12 -51 27
-81 l27 -55 105 -6 c119 -6 147 -4 -289 -18 -139 -5 -290 -6 -335 -4 l-81 6
-24 54 c-28 63 -67 93 -122 93 -48 0 -85 -31 -101 -81 l-12 -41 -65 7 c-36 4
-77 8 -91 10 -14 1 -58 6 -98 10 l-73 7 1 77 c1 42 -2 86 -6 99 -7 23 -24 30
-24 10 0 -9 -4 -8 -11 2 -9 12 -12 13 -16 1 -5 -11 -7 -11 -15 0 -8 12 -10 12
-15 0 -5 -11 -7 -11 -15 0 -8 12 -10 12 -15 0 -5 -11 -7 -11 -14 0 -8 12 -11
11 -19 -1 -6 -10 -10 -11 -10 -2 0 18 -47 15 -54 -4 -12 -31 -5 -38 14 -14
l19 25 -6 -25 c-6 -22 -5 -24 10 -11 14 11 17 11 18 0 0 -12 1 -12 6 0 5 11 7
11 15 0 8 -12 10 -12 15 0 5 11 7 11 15 0 8 -12 10 -12 15 0 5 11 7 11 15 0 8
-12 10 -12 15 0 5 11 7 11 14 0 8 -12 10 -12 18 -1 13 21 17 -3 13 -83 l-3
-71 -61 6 c-45 5 -64 11 -72 25 -29 49 -69 85 -96 85 -33 0 -48 -16 -56 -59
-5 -22 -11 -30 -21 -27 -8 4 -18 6 -23 6 -4 0 -4 15 0 33 5 17 13 56 17 86 l8
54 51 17 c28 10 74 21 102 25 44 6 53 11 58 32 9 36 96 163 140 205 29 27 53
39 94 47 66 12 285 39 355 44 82 4 377 -3 419 -11z m511 -216 c-11 -8 -23 -12
-28 -9 -13 8 3 23 26 23 20 0 20 0 2 -14z m398 -283 c3 -16 4 -29 2 -31 -1 -2
-44 -6 -94 -9 -85 -6 -91 -5 -91 13 0 41 18 48 136 52 38 2 42 0 47 -25z m37
1 c13 -33 13 -34 -4 -34 -14 0 -26 21 -26 46 0 23 20 16 30 -12z m-2150 -73
c0 -5 3 -23 6 -40 5 -25 3 -31 -11 -31 -12 0 -15 -5 -11 -17 5 -15 4 -15 -9 1
-8 11 -15 27 -15 35 0 9 -3 26 -6 39 -5 19 -2 22 20 22 14 0 26 -4 26 -9z
m238 -21 c48 0 58 -8 65 -51 5 -35 5 -35 -26 -32 -68 8 -78 14 -93 48 -18 44
-18 49 2 41 9 -3 32 -6 52 -6z m314 -31 l76 -11 7 -50 c4 -27 5 -52 2 -55 -3
-3 -59 2 -124 10 l-118 14 75 3 75 2 -105 14 c-57 8 -107 18 -111 22 -4 4 -10
22 -14 41 l-7 34 83 -7 c46 -4 119 -12 161 -17z m-430 -11 c-3 -14 -1 -19 6
-14 8 5 10 1 5 -11 -3 -10 -2 -15 2 -10 5 4 15 -7 22 -24 16 -39 7 -129 -13
-129 -8 0 -11 6 -7 17 4 11 3 14 -6 9 -8 -5 -12 -3 -10 5 4 30 -3 43 -11 19
-6 -19 -8 -10 -9 36 -1 69 8 124 19 124 5 0 6 -10 2 -22z m1955 6 c-14 -15
-95 -26 -251 -34 -93 -5 -172 -13 -175 -18 -3 -5 -89 -16 -191 -25 l-185 -16
188 3 c186 2 187 2 187 -20 0 -21 -4 -22 -157 -28 -286 -12 -401 -22 -417 -35
-9 -8 -16 -24 -16 -37 0 -17 -6 -24 -20 -24 -41 0 -69 30 -100 111 -16 43 -30
80 -30 82 0 2 174 7 388 11 306 6 714 24 776 34 5 1 7 -1 3 -4z m-1219 -43 c3
-9 -1 -11 -16 -6 -53 16 -109 -71 -98 -152 19 -137 117 -161 157 -37 14 43 17
46 23 26 5 -15 0 -35 -16 -64 -44 -79 -104 -88 -154 -22 -52 67 -40 217 19
259 26 18 79 16 85 -4z m1342 -20 c15 -28 3 -32 -119 -42 -179 -14 -211 -12
-211 10 0 16 9 21 53 25 28 4 86 10 127 15 123 14 138 13 150 -8z m-345 -42
c4 -27 4 -53 1 -56 -3 -4 -42 -8 -87 -11 -62 -4 -83 -1 -90 9 -10 16 -12 93
-2 102 3 4 43 7 89 7 l82 0 7 -51z m-1010 35 c61 -24 59 -209 -3 -229 -30 -9
-49 3 -67 42 -24 50 -16 135 15 168 25 27 30 28 55 19z m-312 -81 c-7 -2 -21
-2 -30 0 -10 3 -4 5 12 5 17 0 24 -2 18 -5z m112 -12 c3 -6 -10 -7 -32 -4 -50
8 -55 13 -10 13 20 0 38 -4 42 -9z m1490 0 c-17 -17 -133 -31 -330 -40 -298
-15 -671 -24 -664 -17 4 4 125 11 270 17 273 9 690 36 698 44 2 3 11 5 20 5 9
0 11 -3 6 -9z m-1999 -41 c9 0 12 -5 9 -10 -8 -13 -35 6 -34 24 0 7 2 6 6 -1
2 -7 11 -13 19 -13z"/>
<path d="M2565 2897 c-29 -50 -60 -135 -69 -194 l-7 -40 70 -17 c39 -10 80
-14 92 -11 11 4 27 1 35 -6 8 -6 17 -10 19 -7 9 9 -19 303 -29 310 -6 4 -28 8
-48 8 -33 0 -40 -5 -63 -43z m123 -188 c6 -32 -103 -54 -127 -26 -13 17 5 44
34 49 36 7 90 -7 93 -23z"/>
<path d="M2480 2923 c-32 -9 -174 -232 -159 -248 3 -2 30 -7 61 -11 l57 -7 16
59 c10 33 35 92 56 132 21 41 39 75 39 78 0 5 -50 3 -70 -3z"/>
<path d="M2416 2634 c-9 -23 -7 -54 3 -54 5 0 9 16 8 35 -1 39 -2 42 -11 19z"/>
<path d="M2113 2611 c-18 -5 -20 -9 -10 -22 14 -18 47 -21 47 -5 0 6 5 4 10
-4 9 -13 11 -13 20 0 5 8 10 20 10 25 0 6 -5 3 -10 -5 -7 -12 -10 -12 -10 -1
0 7 -6 11 -14 8 -8 -3 -16 -2 -18 2 -2 4 -13 5 -25 2z"/>
<path d="M3860 2606 c0 -2 7 -7 16 -10 8 -3 12 -2 9 4 -6 10 -25 14 -25 6z"/>
<path d="M2435 2579 c-10 -31 0 -33 19 -4 14 21 14 25 2 25 -8 0 -18 -9 -21
-21z"/>
<path d="M2486 2578 c9 -31 14 -35 23 -19 7 11 10 11 14 0 4 -12 7 -11 16 1 7
10 11 11 11 3 0 -7 6 -13 14 -13 8 0 17 6 19 13 3 7 6 5 6 -5 1 -10 6 -18 12
-18 7 0 9 10 4 27 -9 36 -12 38 -29 24 -11 -9 -15 -9 -19 1 -4 10 -7 10 -15
-1 -8 -11 -10 -11 -15 0 -4 12 -7 11 -16 -1 -7 -10 -11 -11 -11 -2 0 6 -5 12
-11 12 -6 0 -8 -9 -3 -22z"/>
<path d="M2614 2574 c3 -9 6 -20 6 -25 0 -5 7 -9 15 -9 8 0 15 6 15 13 0 8 3
8 9 -2 8 -12 12 -12 25 2 18 18 21 37 6 37 -5 0 -10 -6 -10 -12 0 -9 -3 -9 -9
1 -8 12 -12 12 -25 2 -11 -9 -16 -10 -16 -2 0 6 -5 11 -11 11 -6 0 -8 -7 -5
-16z"/>
<path d="M2707 2565 c-15 -20 -15 -25 -3 -25 8 0 17 6 19 13 3 7 6 5 6 -5 1
-21 17 -24 24 -5 4 9 8 8 16 -3 8 -12 13 -11 31 10 14 16 17 26 9 29 -6 2 -15
-3 -20 -10 -6 -10 -9 -11 -9 -1 0 6 -6 12 -14 12 -8 0 -17 -6 -19 -12 -3 -8
-6 -6 -6 5 -1 24 -13 21 -34 -8z"/>
<path d="M3907 2579 c7 -7 15 -10 18 -7 3 3 -2 9 -12 12 -14 6 -15 5 -6 -5z"/>
<path d="M2460 2565 c0 -8 5 -15 10 -15 6 0 10 7 10 15 0 8 -4 15 -10 15 -5 0
-10 -7 -10 -15z"/>
<path d="M2834 2558 c3 -13 6 -26 6 -30 0 -13 20 -9 36 6 16 17 19 46 4 46 -5
0 -10 -7 -10 -15 0 -8 -4 -15 -10 -15 -5 0 -10 7 -10 15 0 8 -5 15 -11 15 -7
0 -9 -9 -5 -22z"/>
<path d="M2914 2548 c3 -13 6 -25 6 -28 0 -3 30 -6 68 -6 37 -1 56 1 42 3 -64
11 -100 25 -100 38 0 8 -5 15 -11 15 -7 0 -9 -9 -5 -22z"/>
<path d="M2810 2535 c0 -8 5 -15 10 -15 6 0 10 7 10 15 0 8 -4 15 -10 15 -5 0
-10 -7 -10 -15z"/>
<path d="M2885 2531 c-6 -11 9 -23 19 -14 9 9 7 23 -3 23 -6 0 -12 -4 -16 -9z"/>
<path d="M3061 2483 c-24 -16 -45 -83 -31 -97 12 -12 478 -2 491 11 17 17 -25
89 -55 97 -14 3 -107 6 -206 5 -135 -1 -184 -5 -199 -16z m97 -18 c2 -2 1 -17
-3 -34 -6 -27 -11 -31 -40 -31 -65 0 -79 16 -49 59 14 19 22 22 53 16 20 -4
38 -8 39 -10z m107 -32 l7 -33 -51 0 -51 0 0 34 c0 33 2 35 38 38 45 4 48 2
57 -39z m215 25 c36 -39 27 -45 -87 -51 -60 -3 -109 -4 -110 -4 0 1 -4 19 -8
40 l-7 37 95 0 c86 0 98 -2 117 -22z"/>
<path d="M2211 2301 c-1 -24 2 -32 9 -25 7 7 7 19 1 35 -9 23 -10 22 -10 -10z"/>
<path d="M2896 2251 c-39 -42 -28 -159 17 -182 20 -11 20 -11 -1 16 -39 49
-22 165 24 165 8 0 12 5 9 10 -10 16 -30 12 -49 -9z"/>
<path d="M3760 1860 c-19 -4 -100 -28 -180 -53 -172 -54 -257 -72 -403 -87
-180 -18 -326 4 -621 94 -82 25 -168 46 -191 46 -55 0 -91 -28 -105 -83 -44
-174 -93 -291 -165 -391 -41 -56 -50 -85 -40 -123 7 -28 7 -28 21 12 32 92 99
99 299 31 225 -77 420 -106 706 -106 273 0 469 29 678 101 195 66 268 64 310
-12 12 -21 24 -39 27 -39 2 0 4 17 4 38 0 29 -13 58 -58 127 -67 102 -105 189
-128 289 -12 57 -47 146 -57 146 -1 0 -16 4 -32 8 -17 5 -46 5 -65 2z m-1290
-81 c12 -7 10 -8 -7 -9 -40 0 -96 -64 -162 -184 -35 -64 -68 -116 -72 -116 -5
0 7 42 25 93 81 221 80 220 121 230 23 6 73 -2 95 -14z m1338 3 c20 -20 119
-289 110 -298 -6 -5 -40 50 -83 136 -40 79 -65 109 -115 138 -42 25 -43 27
-20 33 47 13 90 9 108 -9z m-758 -92 c0 -5 -4 -10 -10 -10 -5 0 -10 5 -10 10
0 6 5 10 10 10 6 0 10 -4 10 -10z m-250 -63 c0 -24 -5 -48 -12 -55 -24 -24
-69 -8 -52 19 5 8 9 8 14 -1 14 -22 30 0 30 41 0 21 5 39 10 39 6 0 10 -19 10
-43z m40 -2 c0 -38 3 -45 20 -45 17 0 20 7 20 45 0 25 5 45 10 45 6 0 10 -22
10 -50 0 -45 -2 -50 -25 -56 -37 -9 -55 11 -55 62 0 24 5 44 10 44 6 0 10 -20
10 -45z m161 29 c10 -12 10 -20 2 -34 -9 -13 -8 -22 3 -39 13 -18 13 -21 1
-21 -8 0 -22 11 -31 25 -18 28 -36 25 -36 -6 0 -10 -3 -19 -7 -19 -6 0 -8 51
-4 103 2 14 59 7 72 -9z m49 -39 c0 -30 -4 -55 -10 -55 -5 0 -10 25 -10 55 0
30 5 55 10 55 6 0 10 -25 10 -55z m94 33 c31 -44 9 -88 -45 -88 -29 0 -29 1
-29 55 0 54 0 55 29 55 20 0 35 -8 45 -22z m46 -33 c0 -30 -4 -55 -10 -55 -5
0 -10 25 -10 55 0 30 5 55 10 55 6 0 10 -25 10 -55z m100 40 c11 -13 8 -15
-21 -13 -30 3 -34 0 -37 -25 -4 -32 20 -46 43 -27 21 18 32 3 13 -17 -23 -23
-66 -10 -74 23 -14 55 43 99 76 59z m102 -39 c10 -27 16 -51 12 -55 -4 -3 -9
0 -11 7 -6 14 -49 16 -58 2 -3 -5 -10 -10 -15 -10 -8 0 -1 26 25 98 9 24 27 7
47 -42z m-1062 -182 c0 -34 -4 -53 -10 -49 -5 3 -10 19 -10 35 0 15 -6 30 -12
33 -9 3 -7 10 7 21 11 8 21 16 23 16 1 0 2 -25 2 -56z m100 47 c0 -5 -7 -22
-15 -37 -8 -16 -15 -37 -15 -46 0 -10 -4 -18 -10 -18 -14 0 -12 31 4 63 14 25
13 27 -5 27 -10 0 -19 5 -19 10 0 6 14 10 30 10 17 0 30 -4 30 -9z m129 0 c18
-11 19 -65 1 -85 -7 -9 -25 -16 -41 -16 -28 0 -29 1 -29 55 0 53 1 55 28 55
15 0 33 -4 41 -9z m111 -1 c0 -5 -13 -10 -30 -10 -16 0 -30 -4 -30 -10 0 -5
14 -10 30 -10 17 0 30 -4 30 -10 0 -5 -13 -10 -30 -10 -20 0 -30 -5 -30 -15 0
-10 10 -15 30 -15 17 0 30 -5 30 -11 0 -6 -16 -9 -37 -7 l-38 3 -3 53 -3 52
40 0 c23 0 41 -4 41 -10z m95 -5 c16 -49 17 -50 27 -17 15 54 38 41 38 -23 0
-58 -19 -79 -21 -22 l-1 32 -9 -32 c-13 -45 -26 -41 -37 10 l-10 42 -1 -42
c-2 -64 -21 -52 -21 12 0 43 3 55 15 55 9 0 18 -7 20 -15z m158 -32 c20 -56
21 -63 7 -63 -5 0 -10 7 -10 15 0 21 -40 19 -56 -2 -22 -31 -22 -10 -1 45 11
28 25 52 31 52 7 0 20 -21 29 -47z m114 31 c3 -9 1 -24 -4 -33 -8 -12 -7 -22
1 -33 11 -15 15 -13 39 17 32 41 33 45 7 45 -11 0 -20 5 -20 10 0 6 16 10 35
10 42 0 44 -12 9 -57 l-25 -33 30 0 c17 0 31 -4 31 -10 0 -5 -24 -10 -54 -10
-46 0 -58 4 -74 25 -11 14 -23 25 -26 25 -3 0 -6 -11 -6 -25 0 -14 -4 -25 -10
-25 -5 0 -10 25 -10 55 l0 55 35 0 c24 0 38 -5 42 -16z m197 0 c21 -21 20 -47
-3 -75 -16 -20 -23 -22 -47 -14 -52 19 -43 105 12 105 12 0 30 -7 38 -16z
m145 2 c7 -8 11 -30 9 -48 -2 -25 -9 -35 -29 -42 -45 -15 -59 -3 -59 54 l0 50
34 0 c18 0 39 -6 45 -14z m111 4 c0 -5 -13 -10 -30 -10 -16 0 -30 -4 -30 -10
0 -5 11 -10 25 -10 14 0 25 -4 25 -10 0 -5 -11 -10 -25 -10 -16 0 -25 -6 -25
-15 0 -10 10 -15 30 -15 17 0 30 -4 30 -10 0 -5 -18 -10 -40 -10 l-40 0 0 55
0 55 40 0 c22 0 40 -4 40 -10z m100 -45 c0 -30 -4 -55 -10 -55 -5 0 -10 15
-10 34 0 19 -5 36 -12 38 -9 3 -8 9 2 21 24 27 30 20 30 -38z m89 41 c17 -20
10 -77 -11 -90 -14 -8 -22 -7 -35 7 -17 17 -17 18 6 15 13 -2 26 2 28 9 3 7
-3 10 -15 6 -14 -3 -22 1 -27 17 -12 38 29 66 54 36z m80 0 c17 -20 10 -77
-11 -90 -14 -8 -22 -7 -35 8 -17 18 -17 18 10 12 31 -7 38 9 7 17 -26 7 -36
33 -20 52 16 19 34 19 49 1z m81 -20 c0 -19 4 -36 9 -38 5 -1 3 -12 -5 -22 -8
-11 -14 -14 -14 -8 0 7 -11 12 -25 12 -31 0 -31 11 -2 55 28 44 37 44 37 1z"/>
<path d="M3760 1773 c0 -13 59 -78 65 -72 7 8 -37 71 -52 77 -7 2 -13 0 -13
-5z"/>
<path d="M2943 1638 c2 -7 12 -13 22 -13 10 0 20 6 23 13 2 7 -6 12 -23 12
-17 0 -25 -5 -22 -12z"/>
<path d="M3090 1615 c0 -28 4 -35 20 -35 16 0 20 7 20 35 0 28 -4 35 -20 35
-16 0 -20 -7 -20 -35z"/>
<path d="M3350 1615 c0 -8 5 -15 10 -15 6 0 10 7 10 15 0 8 -4 15 -10 15 -5 0
-10 -7 -10 -15z"/>
<path d="M2510 1435 c0 -28 4 -35 20 -35 16 0 20 7 20 35 0 28 -4 35 -20 35
-16 0 -20 -7 -20 -35z"/>
<path d="M2887 1446 c-4 -10 -5 -21 -2 -24 9 -9 17 6 13 25 -3 17 -4 17 -11
-1z"/>
<path d="M2980 1460 c0 -5 9 -10 20 -10 11 0 20 5 20 10 0 6 -9 10 -20 10 -11
0 -20 -4 -20 -10z"/>
<path d="M3174 1456 c-10 -26 1 -51 22 -54 24 -3 38 20 29 49 -7 22 -43 25
-51 5z"/>
<path d="M3330 1435 c0 -29 3 -36 18 -33 11 2 17 13 17 33 0 20 -6 31 -17 33
-15 3 -18 -4 -18 -33z"/>
<path d="M3640 1455 c0 -8 7 -15 15 -15 8 0 15 7 15 15 0 8 -7 15 -15 15 -8 0
-15 -7 -15 -15z"/>
<path d="M3720 1455 c0 -8 7 -15 15 -15 8 0 15 7 15 15 0 8 -7 15 -15 15 -8 0
-15 -7 -15 -15z"/>
<path d="M3806 1435 c-3 -8 -1 -15 4 -15 6 0 10 7 10 15 0 8 -2 15 -4 15 -2 0
-6 -7 -10 -15z"/>
<path d="M2631 1816 c9 -9 236 -65 274 -68 40 -3 40 -3 43 35 l3 37 -162 0
c-89 0 -160 -2 -158 -4z"/>
<path d="M3390 1800 c0 -24 8 -24 90 0 l65 19 -77 0 c-72 1 -78 -1 -78 -19z"/>
<path d="M1868 1643 l-27 -4 35 -72 c29 -61 34 -82 34 -142 0 -74 -6 -92 -68
-190 -17 -27 -34 -62 -37 -76 -6 -26 -5 -26 57 -33 106 -11 228 -46 326 -91
50 -24 92 -40 92 -36 0 17 -76 85 -140 126 -88 56 -114 98 -108 169 4 45 15
70 67 151 35 53 65 105 68 114 6 22 -85 65 -171 80 -60 11 -78 12 -128 4z
m196 -73 c55 -18 63 -28 44 -52 -12 -14 -20 -11 -78 34 -66 51 -64 52 34 18z"/>
<path d="M4100 1630 c-38 -9 -120 -51 -120 -61 0 -3 34 -62 75 -130 99 -164
100 -179 12 -263 -35 -34 -93 -85 -130 -114 -37 -29 -67 -56 -67 -60 0 -4 35
9 78 30 86 41 233 82 335 93 85 9 85 16 15 138 -51 88 -53 94 -53 167 0 74 4
86 63 203 5 9 -163 7 -208 -3z m75 -38 c-44 -38 -118 -83 -125 -76 -24 24 -13
37 50 59 71 26 89 30 75 17z"/>
<path d="M2121 1301 c-37 -35 -41 -76 -10 -115 25 -32 178 -150 186 -143 8 9
62 230 57 238 -10 16 -117 49 -158 49 -35 0 -51 -6 -75 -29z"/>
<path d="M3853 1309 c-29 -11 -53 -26 -53 -32 0 -7 12 -65 27 -129 l26 -116
36 26 c128 93 171 145 171 205 0 61 -108 85 -207 46z"/>
<path d="M1980 771 c-24 -45 -3 -111 35 -111 18 0 35 31 35 65 0 37 -17 65
-40 65 -11 0 -24 -9 -30 -19z"/>
<path d="M2990 765 c0 -23 4 -26 28 -23 19 2 27 9 27 23 0 14 -8 21 -27 23
-24 3 -28 0 -28 -23z"/>
<path d="M3326 748 c-9 -34 -8 -38 9 -38 12 0 14 7 9 28 -9 36 -10 37 -18 10z"/>
<path d="M4100 765 c0 -20 5 -25 24 -25 25 0 36 15 29 38 -3 6 -16 12 -29 12
-19 0 -24 -5 -24 -25z"/>
<path d="M4749 766 c-14 -31 -4 -92 17 -100 31 -12 54 12 54 57 0 24 -5 48
-12 55 -20 20 -48 14 -59 -12z"/>
</g>
</svg>
